<svg width="15" height="15" viewBox="0 0 15 15" fill="none" xmlns="http://www.w3.org/2000/svg">
<path fill-rule="evenodd" clip-rule="evenodd" d="M4.375 0.625L13.75 0.625C13.9158 0.625 14.0747 0.690848 14.1919 0.808058C14.3092 0.925269 14.375 1.08424 14.375 1.25V10.625C14.375 10.9702 14.0952 11.25 13.75 11.25C13.4048 11.25 13.125 10.9702 13.125 10.625V2.75888L1.69194 14.1919C1.44786 14.436 1.05214 14.436 0.808058 14.1919C0.563981 13.9479 0.563981 13.5521 0.808058 13.3081L12.2411 1.875L4.375 1.875C4.02982 1.875 3.75 1.59518 3.75 1.25C3.75 0.904822 4.02982 0.625 4.375 0.625Z" fill="white"/>
</svg>
